<?xml version="1.0" standalone="no"?>
<!DOCTYPE svg PUBLIC "-//W3C//DTD SVG 20010904//EN"
 "http://www.w3.org/TR/2001/REC-SVG-20010904/DTD/svg10.dtd">
<svg version="1.0" xmlns="http://www.w3.org/2000/svg"
 width="1920.000000pt" height="1260.000000pt" viewBox="0 0 1920.000000 1260.000000"
 preserveAspectRatio="xMidYMid meet">

<g transform="translate(0.000000,1260.000000) scale(0.100000,-0.100000)"
fill="#000000" stroke="none">
<path d="M3 8903 c4 -3427 6 -3710 22 -3863 18 -172 16 -341 -4 -394 -11 -27
-10 -28 11 -23 114 28 184 31 893 28 474 -1 776 -6 860 -14 164 -15 267 -13
530 10 408 35 836 22 1171 -37 102 -18 117 -18 195 -5 201 34 1035 56 1364 35
110 -7 436 -16 725 -19 426 -6 550 -11 660 -26 l135 -18 260 36 c322 45 421
55 639 64 l172 6 38 -46 38 -47 380 0 c312 0 391 -3 440 -16 70 -18 71 -18
283 48 236 73 275 74 670 10 462 -76 699 -102 927 -102 l87 0 12 43 c15 57 6
120 -33 224 l-32 88 -6 320 c-6 271 -10 337 -28 429 -27 133 -49 341 -58 542
l-7 151 29 20 c114 80 312 138 559 163 61 6 304 15 540 20 377 8 579 19 665
35 14 3 214 19 445 35 409 30 423 30 554 15 110 -13 152 -13 240 -4 137 15
724 15 911 0 80 -7 187 -18 237 -26 70 -11 191 -15 492 -15 364 0 428 -3 727
-30 180 -16 329 -32 332 -34 8 -8 151 -480 152 -499 0 -10 -9 -36 -21 -59 -12
-24 -19 -53 -17 -69 4 -24 1 -29 -16 -29 -20 0 -20 0 1 -15 21 -14 31 -12 151
39 163 68 287 111 382 131 106 23 257 21 353 -4 77 -20 249 -102 297 -142 l25
-20 -24 6 c-20 6 -12 -9 51 -101 41 -60 110 -160 153 -223 l78 -113 -6 -207
c-7 -255 -22 -323 -112 -508 -60 -124 -62 -133 -42 -133 85 0 1681 31 1682 33
3 4 36 7080 35 7545 l0 462 -9601 0 -9601 0 5 -3697z"/>
<path d="M16735 5644 c-181 -79 -226 -100 -285 -140 -77 -50 -120 -101 -161
-187 -29 -62 -68 -217 -69 -269 0 -16 -4 -28 -10 -28 -5 0 -10 10 -10 22 0 20
-2 20 -34 -11 -67 -65 -118 -196 -141 -363 l-6 -48 512 0 512 0 52 40 c184
142 281 317 274 493 -4 72 -9 93 -42 160 -34 68 -53 90 -160 189 -142 129
-193 157 -300 164 -62 4 -80 1 -132 -22z"/>
</g>
</svg>
